<svg xmlns="http://www.w3.org/2000/svg" viewBox="0 0 760 300" width="760" height="300" font-family="Helvetica, Arial, sans-serif" font-size="14" fill="#1d2733"><rect width="760" height="300" fill="white"/><text x="110" y="28" font-size="16" text-anchor="middle" font-weight="bold" fill="#1d2733" >LED</text><path d="M75 120 V80 a35 35 0 0 1 70 0 V120 Z" fill="#f8b4b4" stroke="#b91c1c" stroke-width="2"/><rect x="68" y="120" width="84" height="10" fill="#f8b4b4" stroke="#b91c1c" stroke-width="2"/><line x1="152" y1="118" x2="152" y2="132" stroke="white" stroke-width="5"/><line x1="95" y1="130" x2="95" y2="250" stroke="#8a8f96" stroke-width="4"/><line x1="125" y1="130" x2="125" y2="215" stroke="#8a8f96" stroke-width="4"/><text x="85" y="272" font-size="13" text-anchor="middle" font-weight="normal" fill="#1d2733" >long leg</text><text x="85" y="289" font-size="13" text-anchor="middle" font-weight="bold" fill="#15803d" >+ anode</text><text x="140" y="236" font-size="13" text-anchor="start" font-weight="normal" fill="#1d2733" >short leg</text><text x="140" y="253" font-size="13" text-anchor="start" font-weight="bold" fill="#b91c1c" >− cathode</text><text x="160" y="112" font-size="12" text-anchor="start" font-weight="normal" fill="#5b6672" >flat edge</text><text x="160" y="127" font-size="12" text-anchor="start" font-weight="normal" fill="#5b6672" >= − side</text><text x="345" y="28" font-size="16" text-anchor="middle" font-weight="bold" fill="#1d2733" >Diode</text><line x1="240" y1="140" x2="450" y2="140" stroke="#8a8f96" stroke-width="4"/><rect x="295" y="122" width="100" height="36" rx="6" fill="#2b2b2b"/><rect x="370" y="122" width="12" height="36" fill="#d9d9d9"/><text x="260" y="180" font-size="13" text-anchor="middle" font-weight="bold" fill="#15803d" >+ anode</text><text x="430" y="180" font-size="13" text-anchor="middle" font-weight="bold" fill="#b91c1c" >− cathode</text><text x="376" y="110" font-size="12" text-anchor="middle" font-weight="normal" fill="#5b6672" >band</text><text x="345" y="225" font-size="13" text-anchor="middle" font-weight="normal" fill="#5b6672" >current flows this way only →</text><text x="575" y="28" font-size="16" text-anchor="middle" font-weight="bold" fill="#1d2733" >Electrolytic capacitor</text><rect x="540" y="50" width="70" height="120" rx="8" fill="#1e3a8a" stroke="#172554" stroke-width="2"/><rect x="588" y="50" width="16" height="120" fill="#cbd5e1"/><text x="596" y="75" font-size="16" text-anchor="middle" font-weight="bold" fill="#172554" >−</text><text x="596" y="105" font-size="16" text-anchor="middle" font-weight="bold" fill="#172554" >−</text><text x="596" y="135" font-size="16" text-anchor="middle" font-weight="bold" fill="#172554" >−</text><line x1="560" y1="170" x2="560" y2="260" stroke="#8a8f96" stroke-width="4"/><line x1="596" y1="170" x2="596" y2="230" stroke="#8a8f96" stroke-width="4"/><text x="545" y="280" font-size="13" text-anchor="middle" font-weight="bold" fill="#15803d" >+ long leg</text><text x="612" y="250" font-size="13" text-anchor="start" font-weight="bold" fill="#b91c1c" >− (stripe side)</text></svg>